<svg width="36" height="37" viewBox="0 0 36 37" fill="none" xmlns="http://www.w3.org/2000/svg">
<rect width="36" height="37" rx="4" fill="#F77180"/>
<path fill-rule="evenodd" clip-rule="evenodd" d="M26.7263 5.16042C26.5239 5.23272 24.919 6.70748 23.1406 8.42803C21.3622 10.163 19.8296 11.5944 19.7429 11.6089C19.6416 11.6378 18.6729 11.204 17.5886 10.6402C16.4174 10.0329 15.4198 9.61362 15.1595 9.61362C14.9137 9.61362 14.5812 9.67145 14.4077 9.74375C14.2197 9.80158 13.4679 10.4233 12.745 11.1173L11.4003 12.3607C8.98579 10.9293 8.11828 10.4811 7.90141 10.4233C7.64116 10.3655 7.26524 10.4377 6.88932 10.5968C6.44111 10.7848 6.19531 11.0161 6.02181 11.392C5.79048 11.8691 5.76156 12.4619 5.76156 16.7705V21.6141C3.85305 21.6719 3.54942 21.7442 3.31809 21.9756C3.14458 22.1346 3 22.4238 3 22.6262C3 22.8286 3.11567 23.1033 3.26025 23.2335C3.46267 23.4359 3.78075 23.4937 4.64826 23.4937H5.76156V25.5179C4.92297 25.7348 4.54705 25.8071 4.38801 25.8071C4.22897 25.8071 3.95426 25.9083 3.78076 26.0239C3.54942 26.1685 3.44821 26.3854 3.44821 26.7035C3.43375 27.0071 3.54942 27.2818 3.73738 27.4698C4.02655 27.7445 4.1133 27.7445 5.2266 27.571L6.41219 27.383C7.42428 28.5397 8.00262 29.0457 8.36408 29.2626C8.72554 29.465 9.37617 29.7108 9.80992 29.812C10.3883 29.9422 12.4269 30 17.4729 30C22.5189 30 24.5575 29.9422 25.1359 29.812C25.5696 29.7108 26.2202 29.465 26.5817 29.2626C26.9432 29.0457 27.5504 28.5397 27.9263 28.1059L28.6203 27.3252C31.1361 27.7589 31.1939 27.7445 31.4831 27.4698C31.6566 27.3107 31.8012 27.0071 31.7867 26.7758C31.7867 26.5589 31.6855 26.2842 31.5699 26.1685C31.4542 26.0528 31.2373 25.9227 31.0927 25.8938C30.9867 25.8585 30.6404 25.7943 30.2654 25.7248C30.1804 25.709 30.0939 25.693 30.0083 25.6769L29.1842 25.5179V23.4937C31.7289 23.4937 31.8012 23.4793 32.047 23.1178C32.2349 22.8286 32.2639 22.6551 32.1482 22.366C32.0614 22.1491 31.8446 21.9033 31.6421 21.8021C31.4397 21.7009 30.8036 21.6141 30.2252 21.6141H29.1842C29.1842 6.62073 29.1698 6.34601 28.895 5.88335C28.736 5.63755 28.3745 5.31947 28.0998 5.2038C27.8251 5.08813 27.4781 4.98692 27.3335 5.00138C27.2034 5.00138 26.9287 5.07367 26.7263 5.16042ZM24.0226 10.1919C21.3333 12.8378 20.6971 13.4017 20.22 13.5174C19.8296 13.6186 19.5115 13.6186 19.2368 13.5029C19.0199 13.4306 17.9934 12.9246 16.9668 12.4185L15.0872 11.4643C14.4077 12.1149 13.8004 12.6932 13.2799 13.1848C12.6582 13.7632 12.1666 14.0957 11.8341 14.168C11.5594 14.2258 11.169 14.2258 10.9666 14.1535C10.7642 14.0957 10.0123 13.7053 9.30388 13.286C8.58095 12.8523 7.91587 12.5053 7.81466 12.5053C7.68453 12.5053 7.64116 13.5174 7.64116 17.0597V21.6141C8.95687 21.6719 9.28942 21.7731 9.50629 21.9756C9.67979 22.1346 9.82438 22.4238 9.82438 22.6262C9.82438 22.8286 9.70871 23.1033 9.56413 23.2334C9.37617 23.4069 9.05808 23.4937 8.46529 23.4937H7.64116V25.0841C9.434 24.9395 9.63642 24.9684 9.8533 25.1853C9.99788 25.3299 10.1135 25.6191 10.0991 25.836C10.0991 26.0673 9.99788 26.342 9.88221 26.4577C9.76655 26.5733 9.49184 26.7179 9.2605 26.7613C9.04362 26.8047 8.78337 26.877 8.68216 26.9059C8.53758 26.9493 8.53758 27.0071 8.68216 27.195C8.78337 27.3252 9.13037 27.571 9.44846 27.7445C10.0123 28.0481 10.1569 28.0481 17.4729 28.0481C24.4708 28.0481 24.9479 28.0336 25.425 27.7734C25.6997 27.6288 26.0467 27.3975 26.1913 27.2673C26.3359 27.1372 26.4516 26.9926 26.4371 26.9203C26.4371 26.8625 26.2925 26.8191 26.1046 26.8191C25.9311 26.8336 25.6274 26.7179 25.4395 26.5733C25.2226 26.3998 25.1069 26.1685 25.1069 25.8793C25.1214 25.6335 25.2371 25.3299 25.3816 25.1709C25.5985 24.954 25.772 24.9251 26.466 24.9974L27.3046 25.0841V23.4937C26.1335 23.4937 25.772 23.4069 25.6419 23.2768C25.5262 23.1611 25.425 22.8431 25.425 22.5828C25.4106 22.337 25.4973 22.0334 25.5985 21.9466C25.6997 21.8454 26.1335 21.7153 26.5528 21.6575L27.3046 21.5418C27.3046 10.2787 27.2902 7.01108 27.2612 7.01108C27.2468 7.02554 25.7865 8.45693 24.0081 10.1919H24.0226Z" fill="white"/>
<path d="M10.9811 20.5875C10.9955 20.1249 11.0967 19.8935 11.4726 19.5032C11.863 19.0983 12.0654 19.0116 12.5426 19.0116C13.0341 19.0116 13.2221 19.0983 13.6414 19.5176C14.0462 19.9225 14.1474 20.1393 14.1474 20.602C14.1474 20.9201 14.0318 21.3538 13.9017 21.5707C13.7571 21.7731 13.4245 22.0334 13.1787 22.1491C12.8173 22.2936 12.557 22.2936 12.1233 22.1924C11.7377 22.096 11.4485 21.9033 11.2558 21.6141C11.0678 21.3394 10.9666 20.9635 10.9811 20.5875Z" fill="white"/>
<path d="M20.8128 20.5153C20.8272 20.1393 20.9574 19.8646 21.3044 19.5032C21.6658 19.1272 21.8972 19.0116 22.302 19.0116C22.5912 19.0116 23.0105 19.1272 23.2563 19.2574C23.4876 19.402 23.7623 19.6767 23.8635 19.8646C23.9647 20.0526 24.037 20.443 24.0226 20.7321C24.0081 21.0213 23.8924 21.3972 23.7623 21.5707C23.6466 21.7587 23.3141 22.0045 23.0394 22.1201C22.7647 22.2358 22.3888 22.2936 22.2153 22.2503C22.0273 22.2069 21.7237 22.0912 21.5357 22.0045C21.3477 21.9033 21.102 21.6575 21.0007 21.4261C20.8851 21.2093 20.7983 20.8044 20.8128 20.5153Z" fill="white"/>
<path d="M16.4608 23.4937C15.8391 22.7563 15.7668 22.5828 15.8969 22.337C16.027 22.0623 16.1572 22.0479 17.5018 22.0768C18.6585 22.1057 18.991 22.1635 19.1211 22.3515C19.2513 22.5539 19.1356 22.7563 18.5139 23.4792C18.0657 24.0142 17.6464 24.3612 17.4729 24.3612C17.2994 24.3612 16.909 24.0287 16.4608 23.4937Z" fill="white"/>
</svg>
