<svg xmlns="http://www.w3.org/2000/svg" xml:space="preserve" width="125" height="30" viewBox="0 0 125 30" title="raicoon" class="relative -bottom-[.1875rem]"><path fill="currentColor" d="M124.9 8.5v10.7h-3.5V9.1c0-3.5-2.1-5.9-5.4-5.9-3-.1-5.6 2.2-5.7 5.2v.5l.1 10.2h-3.5V.5h3.5V4c1.3-2.4 3.8-3.9 6.4-3.9 4.9 0 8.1 3.5 8.1 8.4zM55 3.3c2.3-.1 4.4 1.1 5.6 3.1h3.5C63.7 5 61.8 0 54.9.1c-5.2.1-9.5 4.2-9.6 9.5-.3 5.4 4 10 9.6 10.1 6.8 0 8.8-5 9.1-6.4h-3.4c-1 2-3.3 3.2-5.6 3.1-3.5 0-6.1-3-6.1-6.6s2.6-6.5 6.1-6.5zM3.5 4V.5H0v18.7h3.5V8.6c0-3.2 1.6-4.9 6.4-4.9h4.9V.4H10C5.7.4 4 2.6 3.5 4zM31 .5h3.5v18.7H31V16c-1.4 2.4-3.9 3.9-6.7 3.7-5 0-9.2-3.6-9.2-9.9 0-6.1 4.3-9.9 9.2-9.9 2.8-.1 5.3 1.2 6.7 3.6v-3zm.2 9.4c0-3.7-2.4-6.6-6.2-6.6s-6.3 2.9-6.3 6.6 2.4 6.6 6.3 6.6c3.6 0 6.2-2.9 6.2-6.6zm7.7 9.4h3.5V.5h-3.5v18.8z"></path><linearGradient id="a" x1="84.819" x2="85.581" y1="265.637" y2="267.103" gradientTransform="matrix(30.3476 0 0 15.7755 -2500.725 -4192.216)" gradientUnits="userSpaceOnUse"><stop offset="0" stop-color="#f8e935"></stop><stop offset=".24" stop-color="#f9e41b"></stop><stop offset=".631" stop-color="#facb32"></stop><stop offset="1" stop-color="#f9b03c"></stop></linearGradient><path fill="url(#a)" d="M94.1 3.5c3.5 0 6.4 2.9 6.4 6.4s-2.9 6.4-6.4 6.4c-1.3 0-2.5-.4-3.7-1-3.4-2-7.7-2-11.1 0-1.1.6-2.4 1-3.7 1-3.5 0-6.4-2.9-6.4-6.4s2.9-6.4 6.4-6.4c1.3 0 2.5.4 3.7 1 3.4 2 7.7 2 11.1 0 1.2-.6 2.5-1 3.7-1m0-3.5c-4.4 0-5.7 2.5-9.2 2.5S80.1 0 75.7 0c-5.6 0-10 4.4-10 9.9s4.4 9.9 10 9.9c4.4 0 5.7-2.5 9.2-2.5s4.8 2.5 9.2 2.5c5.6 0 10-4.4 10-9.9S99.6 0 94.1 0z"></path><circle cx="84.9" cy="27" r="3" fill="#F9B03C"></circle></svg>